<svg width="173" height="219" viewBox="0 0 173 219" fill="none" xmlns="http://www.w3.org/2000/svg">
<path d="M103.213 177.12H13.6562C10.6973 177.12 8.17499 174.721 8.02266 171.762L0.00722437 16.2332C-0.14511 13.2742 2.13007 10.8755 5.089 10.8755H94.646C97.6049 10.8755 100.127 13.2742 100.279 16.2332L108.295 171.762C108.447 174.721 106.172 177.12 103.213 177.12Z" fill="#374760"/>
<path opacity="0.8" d="M103.213 177.12H13.6562C10.6973 177.12 8.17499 174.721 8.02266 171.762L0.00722437 16.2332C-0.14511 13.2742 2.13007 10.8755 5.089 10.8755H94.646C97.6049 10.8755 100.127 13.2742 100.279 16.2332L108.295 171.762C108.447 174.721 106.172 177.12 103.213 177.12Z" fill="white"/>
<path d="M85.8063 5.80273H75.9004V6.50473H85.8063V5.80273Z" fill="#374760"/>
<path d="M72.469 5.80273H68.8418V6.50473H72.469V5.80273Z" fill="#374760"/>
<path d="M107.064 167.255H21.4119C18.5822 167.255 16.1694 164.961 16.0241 162.131L8.35826 13.3837C8.21224 10.5539 10.3884 8.25977 13.2182 8.25977H98.8706C101.7 8.25977 104.113 10.5539 104.258 13.3837L111.924 162.131C112.07 164.961 109.893 167.255 107.064 167.255Z" fill="#374760"/>
<path d="M107.064 163.833H21.4119C20.4136 163.833 19.4933 162.955 19.4414 161.955L11.7755 13.2073C11.7481 12.6647 11.9672 12.3137 12.156 12.115C12.3434 11.9171 12.6804 11.6819 13.2188 11.6819H98.8706C99.8688 11.6819 100.79 12.5594 100.842 13.5597L108.508 162.307C108.535 162.851 108.316 163.202 108.127 163.4C107.938 163.597 107.601 163.833 107.064 163.833ZM13.2174 11.8574C12.7415 11.8574 12.4459 12.0631 12.2824 12.2358C12.1174 12.4099 11.9258 12.718 11.9503 13.1982L19.6162 161.946C19.6632 162.857 20.5021 163.657 21.4112 163.657H107.063C107.539 163.657 107.834 163.451 107.998 163.279C108.163 163.105 108.355 162.796 108.331 162.316L100.665 13.5682C100.618 12.6563 99.7789 11.8567 98.8692 11.8567H13.2174V11.8574Z" fill="white"/>
<path opacity="0.3" d="M77.1122 65.8884C86.8522 55.893 86.2168 39.4769 75.693 29.2219C65.1692 18.967 48.7421 18.7566 39.0021 28.752C29.2621 38.7475 29.8975 55.1636 40.4213 65.4185C50.9451 75.6735 67.3722 75.8838 77.1122 65.8884Z" fill="white"/>
<path d="M79.0356 47.3323C79.2223 50.9554 78.4789 54.3565 77.0152 57.3246C73.8134 63.863 67.1135 68.3102 59.1381 68.3102C51.1627 68.3102 44.0044 63.863 40.1286 57.3246C38.3596 54.3565 37.2652 50.9554 37.0784 47.3323C36.481 35.7444 45.388 26.3538 56.9752 26.3538C68.5624 26.3538 78.4382 35.7444 79.0356 47.3323Z" fill="white"/>
<path d="M77.0153 57.3247C73.8134 63.8632 67.1135 68.3103 59.1381 68.3103C51.1627 68.3103 44.0044 63.8632 40.1287 57.3247C45.228 53.7965 51.4596 51.7368 58.2838 51.7368C65.1079 51.7368 71.5523 53.7972 77.0153 57.3247Z" fill="#374760"/>
<path d="M64.5548 46.8364C68.065 43.2342 67.836 37.3179 64.0432 33.6221C60.2505 29.9262 54.3303 29.8504 50.82 33.4526C47.3098 37.0549 47.5389 42.9712 51.3316 46.667C55.1243 50.3628 61.0446 50.4387 64.5548 46.8364Z" fill="#374760"/>
<path d="M94.7884 109.394H27.7235C26.5259 109.394 25.5052 108.423 25.4434 107.226L24.9352 97.3709C24.8734 96.1733 25.7944 95.2024 26.9921 95.2024H94.0569C95.2545 95.2024 96.2752 96.1733 96.337 97.3709L96.8453 107.226C96.9063 108.423 95.986 109.394 94.7884 109.394Z" fill="white"/>
<path opacity="0.3" d="M74.2507 89.7907H46.2416C45.044 89.7907 44.0233 88.8199 43.9615 87.6223L43.8534 85.5303C43.7916 84.3327 44.7126 83.3618 45.9103 83.3618H73.9194C75.117 83.3618 76.1377 84.3327 76.1994 85.5303L76.3076 87.6223C76.3686 88.8199 75.4483 89.7907 74.2507 89.7907Z" fill="black"/>
<path opacity="0.3" d="M84.6662 156.629H42.714C40.6747 156.629 38.9358 154.976 38.8312 152.936L38.582 148.098C38.4767 146.059 40.045 144.406 42.0843 144.406H84.0365C86.0758 144.406 87.8147 146.059 87.9193 148.098L88.1685 152.936C88.2738 154.976 86.7055 156.629 84.6662 156.629Z" fill="black"/>
<path d="M96.0127 133.147H28.9478C27.7502 133.147 26.7295 132.176 26.6677 130.978L26.1602 121.124C26.0984 119.926 27.0194 118.955 28.217 118.955H95.2819C96.4795 118.955 97.5002 119.926 97.562 121.124L98.0702 130.978C98.1306 132.176 97.2103 133.147 96.0127 133.147Z" fill="white"/>
<path d="M36.2521 102.298C36.3202 103.624 35.3009 104.698 33.9755 104.698C32.6501 104.698 31.5199 103.624 31.4511 102.298C31.383 100.973 32.4023 99.8982 33.7277 99.8982C35.0531 99.8982 36.1833 100.973 36.2521 102.298Z" fill="#263238"/>
<path d="M43.6281 102.298C43.6962 103.624 42.6768 104.698 41.3515 104.698C40.0261 104.698 38.8959 103.624 38.8271 102.298C38.759 100.973 39.7783 99.8982 41.1037 99.8982C42.429 99.8982 43.56 100.973 43.6281 102.298Z" fill="#263238"/>
<path d="M51.0039 102.298C51.072 103.624 50.0527 104.698 48.7273 104.698C47.4019 104.698 46.2717 103.624 46.2029 102.298C46.1348 100.973 47.1541 99.8982 48.4795 99.8982C49.8049 99.8982 50.9358 100.973 51.0039 102.298Z" fill="#263238"/>
<path d="M58.3799 102.298C58.448 103.624 57.4287 104.698 56.1033 104.698C54.7779 104.698 53.6477 103.624 53.5789 102.298C53.5108 100.973 54.5301 99.8982 55.8555 99.8982C57.1816 99.8982 58.3118 100.973 58.3799 102.298Z" fill="#263238"/>
<path d="M37.4757 126.051C37.5438 127.377 36.5245 128.451 35.1991 128.451C33.8737 128.451 32.7435 127.376 32.6747 126.051C32.6066 124.726 33.6259 123.651 34.9513 123.651C36.2767 123.651 37.4076 124.725 37.4757 126.051Z" fill="#263238"/>
<path d="M44.8523 126.051C44.9204 127.377 43.9011 128.451 42.5757 128.451C41.2496 128.451 40.1201 127.376 40.0513 126.051C39.9832 124.726 41.0025 123.651 42.3279 123.651C43.6533 123.651 44.7835 124.725 44.8523 126.051Z" fill="#263238"/>
<path d="M52.2283 126.051C52.2964 127.377 51.2771 128.451 49.9517 128.451C48.6263 128.451 47.4961 127.376 47.4273 126.051C47.3592 124.726 48.3785 123.651 49.7039 123.651C51.03 123.65 52.1602 124.725 52.2283 126.051Z" fill="#263238"/>
<path d="M59.6041 126.051C59.6722 127.377 58.6529 128.451 57.3275 128.451C56.0022 128.451 54.8719 127.376 54.8031 126.051C54.7351 124.726 55.7544 123.651 57.0797 123.651C58.4058 123.65 59.536 124.725 59.6041 126.051Z" fill="#263238"/>
<path d="M66.9801 126.051C67.0482 127.377 66.0289 128.451 64.7035 128.451C63.3781 128.451 62.2479 127.376 62.1791 126.051C62.111 124.726 63.1303 123.651 64.4557 123.651C65.7811 123.651 66.912 124.725 66.9801 126.051Z" fill="#263238"/>
<path d="M74.3567 126.051C74.4248 127.377 73.4055 128.451 72.0801 128.451C70.754 128.451 69.6245 127.376 69.5557 126.051C69.4876 124.726 70.5069 123.651 71.8323 123.651C73.1577 123.651 74.2879 124.725 74.3567 126.051Z" fill="#263238"/>
<path d="M163.735 50.5312C163.911 50.7917 164 50.9349 164.116 51.1223L164.43 51.6474C164.634 51.9949 164.812 52.3417 164.992 52.6885C165.343 53.3828 165.675 54.0771 165.972 54.7798C166.573 56.1831 167.067 57.6172 167.493 59.0606C168.358 61.9451 168.886 64.9019 169.157 67.8601L169.211 68.414C169.221 68.4933 169.228 68.619 169.234 68.7489L169.249 69.1265C169.258 69.625 169.234 70.1192 169.164 70.586C169.032 71.5274 168.779 72.3964 168.468 73.2002C167.837 74.8008 166.97 76.1606 166.04 77.3982C164.136 79.8629 161.974 81.8355 159.505 83.5842L157.571 81.3189C159.306 79.3126 160.987 77.0886 162.233 74.8682C162.868 73.7611 163.354 72.619 163.656 71.5548C163.798 71.0226 163.875 70.5109 163.887 70.0497C163.903 69.8166 163.886 69.6011 163.863 69.3968L163.842 69.2466C163.837 69.2009 163.832 69.1504 163.814 69.0556L163.725 68.5614C163.266 65.9261 162.639 63.3378 161.817 60.8366C161.413 59.5828 160.914 58.3712 160.408 57.1813C160.158 56.5839 159.881 56.0048 159.597 55.4389L159.161 54.6141L158.945 54.2231L158.767 53.917L163.735 50.5312Z" fill="#803E3C"/>
<path d="M157.182 83.6299L159.724 88.9967L161.739 84.4583C161.739 84.4583 159.953 80.5271 157.535 80.8865L157.182 83.6299Z" fill="#7F3E3B"/>
<path d="M161.545 89.2635L163.564 85.9535L161.74 84.459L159.724 88.9974L161.545 89.2635Z" fill="#7F3E3B"/>
<path d="M150.118 213.109C150.662 213.109 151.256 212.997 151.671 212.899C151.725 212.886 151.767 212.842 151.776 212.788C151.786 212.733 151.762 212.678 151.716 212.647C151.515 212.515 149.729 211.362 149.045 211.672C148.937 211.721 148.801 211.828 148.768 212.063C148.723 212.375 148.801 212.624 148.999 212.804C149.249 213.032 149.666 213.109 150.118 213.109ZM151.277 212.7C150.254 212.905 149.484 212.869 149.186 212.598C149.059 212.483 149.013 212.32 149.044 212.102C149.06 211.985 149.114 211.946 149.159 211.926C149.52 211.759 150.549 212.26 151.277 212.7Z" fill="#0F969C"/>
<path d="M151.639 212.902C151.663 212.902 151.687 212.896 151.709 212.883C151.752 212.858 151.778 212.813 151.778 212.763C151.778 212.691 151.771 210.999 151.131 210.433C150.961 210.282 150.763 210.219 150.542 210.247C150.193 210.289 150.098 210.509 150.073 210.635C149.94 211.298 151.009 212.566 151.57 212.884C151.592 212.897 151.616 212.902 151.639 212.902ZM150.638 210.519C150.753 210.519 150.854 210.559 150.947 210.641C151.328 210.98 151.459 211.929 151.491 212.493C150.933 212.047 150.266 211.094 150.346 210.69C150.36 210.624 150.398 210.544 150.575 210.523C150.597 210.521 150.618 210.519 150.638 210.519Z" fill="#0F969C"/>
<path d="M143.489 210.245C143.522 210.21 143.534 210.159 143.519 210.111C143.503 210.054 143.452 210.015 143.393 210.012C143.102 209.998 140.578 209.892 140.01 210.507C139.998 210.521 139.986 210.535 139.976 210.549C139.881 210.676 139.861 210.827 139.916 210.984C140.009 211.246 140.182 211.418 140.428 211.495C141.245 211.748 142.683 210.832 143.468 210.264C143.476 210.258 143.482 210.252 143.489 210.245ZM140.22 210.69C140.533 210.351 141.922 210.259 142.965 210.277C141.871 211.018 140.968 211.371 140.511 211.23C140.351 211.18 140.242 211.069 140.179 210.891C140.154 210.822 140.16 210.768 140.199 210.716C140.205 210.707 140.212 210.698 140.22 210.69Z" fill="#0F969C"/>
<path d="M143.489 210.245C143.496 210.238 143.501 210.23 143.507 210.221C143.531 210.178 143.532 210.126 143.508 210.083C143.475 210.024 142.69 208.643 141.762 208.392C141.477 208.316 141.208 208.35 140.96 208.496C140.626 208.692 140.607 208.918 140.649 209.072C140.829 209.722 142.619 210.295 143.387 210.29C143.426 210.29 143.463 210.273 143.489 210.245ZM140.968 208.838C140.996 208.807 141.039 208.773 141.101 208.736C141.284 208.629 141.476 208.604 141.689 208.661C142.299 208.825 142.873 209.606 143.127 209.996C142.297 209.901 141.025 209.388 140.917 208.998C140.911 208.974 140.895 208.916 140.968 208.838Z" fill="#0F969C"/>
<path d="M151.217 29.9668C150.533 33.4557 148.996 41.0675 151.437 43.3961C151.437 43.3961 150.483 46.9355 144 46.9355C136.871 46.9355 140.594 43.3968 140.594 43.3968C144.485 42.4673 144.384 39.5807 143.706 36.8696L151.217 29.9668Z" fill="#7F3E3B"/>
<path d="M139.336 21.7379C139.378 21.7379 139.42 21.7281 139.461 21.7084C139.598 21.6396 139.654 21.4725 139.585 21.3342C138.895 19.9569 137.618 19.7969 137.564 19.7905C137.412 19.7723 137.274 19.8832 137.256 20.0362C137.239 20.1886 137.348 20.3262 137.5 20.3444C137.542 20.3493 138.535 20.4848 139.086 21.5842C139.136 21.6817 139.234 21.7379 139.336 21.7379Z" fill="#263238"/>
<path d="M137.211 24.7876C137.211 24.7876 136.161 26.7153 135.161 27.5844C135.71 28.2414 136.8 28.1067 136.8 28.1067L137.211 24.7876Z" fill="#630F0F"/>
<path d="M137.732 24.0308C137.674 24.5018 137.378 24.8521 137.069 24.8142C136.762 24.7763 136.56 24.3635 136.618 23.8932C136.676 23.4221 136.973 23.0718 137.281 23.1097C137.587 23.1476 137.79 23.5597 137.732 24.0308Z" fill="#263238"/>
<path d="M137.413 23.1524L136.323 22.687C136.323 22.687 136.794 23.641 137.413 23.1524Z" fill="#263238"/>
<path d="M149.684 208.912L143.958 210.249L140.478 197.078L146.205 195.741L149.684 208.912Z" fill="#7F3E3B"/>
<path d="M158.477 212.763H152.597L153.058 199.147H158.938L158.477 212.763Z" fill="#7F3E3B"/>
<path d="M152.131 212.083H158.737C158.977 212.083 159.172 212.25 159.206 212.484L159.958 217.71C160.036 218.252 159.57 218.766 159.015 218.756C156.712 218.717 155.602 218.582 152.697 218.582C150.91 218.582 148.299 218.767 145.831 218.767C143.417 218.767 143.232 216.326 144.259 216.106C148.867 215.114 149.595 213.748 151.148 212.444C151.428 212.21 151.779 212.083 152.131 212.083Z" fill="#263238"/>
<path d="M143.451 209.371L149.452 206.61C149.67 206.51 149.918 206.58 150.046 206.779L152.914 211.213C153.212 211.673 153.003 212.334 152.495 212.556C150.386 213.483 149.321 213.824 146.681 215.038C145.058 215.785 141.776 217.498 139.534 218.53C137.341 219.538 136.153 217.399 136.994 216.768C140.766 213.942 141.842 211.943 142.708 210.109C142.865 209.78 143.131 209.519 143.451 209.371Z" fill="#263238"/>
<path opacity="0.2" d="M140.48 197.081L142.344 204.137L148.002 202.532L146.209 195.743L140.48 197.081Z" fill="black"/>
<path opacity="0.2" d="M158.94 199.15H153.057L152.822 206.169H158.704L158.94 199.15Z" fill="black"/>
<path d="M161.579 44.732C164.022 45.2676 166.631 54.0553 166.631 54.0553L159.724 61.3989C159.724 61.3989 153.993 53.1455 155.161 50.1107C156.377 46.9496 158.692 44.0995 161.579 44.732Z" fill="#263238"/>
<path opacity="0.4" d="M157.707 50.325C156.471 49.1947 155.636 49.5317 155.067 50.4302C154.506 53.0417 157.833 58.5103 159.174 60.5812C159.792 58.1101 160.501 52.8943 157.707 50.325Z" fill="black"/>
<path d="M130.654 44.9025C130.654 44.9025 127.853 45.8888 133.464 80.3921C142.94 80.3921 152.735 80.3921 157.345 80.3921C156.945 70.6722 156.933 64.6792 161.578 44.7319C161.578 44.7319 156.575 43.6431 151.437 43.396C147.418 43.2022 144.126 43.0738 140.593 43.3967C135.936 43.8214 130.654 44.9025 130.654 44.9025Z" fill="#263238"/>
<path opacity="0.4" d="M130.441 58.145C130.596 59.8228 130.799 61.7112 131.066 63.8453C133.022 62.084 134.62 57.0745 134.035 54.1514C132.666 55.1686 131.403 56.741 130.441 58.145Z" fill="black"/>
<path d="M132.99 52.9145C131.691 56.1963 130.259 59.3153 128.65 62.4301C127.042 65.5406 125.326 68.5971 123.044 71.5526L122.596 72.105L122.371 72.3809C122.294 72.4736 122.233 72.5557 122.109 72.6828C121.675 73.1622 121.204 73.5722 120.723 73.9162C119.756 74.6056 118.756 75.0443 117.788 75.382C115.847 76.0348 113.972 76.2658 112.144 76.376C108.474 76.5248 105.003 76.1843 101.502 75.4311L101.892 72.4785C103.505 72.4869 105.197 72.4511 106.829 72.3479C108.469 72.2623 110.092 72.0868 111.649 71.8095C113.202 71.549 114.704 71.1531 115.958 70.6077C116.577 70.3304 117.114 69.9983 117.51 69.6621C117.709 69.495 117.865 69.323 117.99 69.1594C118.016 69.1356 118.079 69.0429 118.132 68.9678L118.297 68.7361L118.625 68.2749C120.355 65.7161 121.873 62.7432 123.324 59.7716C124.748 56.786 126.122 53.6909 127.412 50.6702L132.99 52.9145Z" fill="#803E3C"/>
<path d="M130.654 44.9025C127.731 45.615 124.135 53.6389 124.135 53.6389L130.202 62.5508C130.202 62.5508 138.278 52.3837 137.318 49.2767C136.317 46.0412 134.2 44.0376 130.654 44.9025Z" fill="#263238"/>
<path d="M103.573 72.9166L98.5135 70.5803L98.0045 75.6101C98.0045 75.6101 102.233 76.8548 104.319 75.5793L103.573 72.9166Z" fill="#7F3E3B"/>
<path d="M95.483 70.072L95 73.9028L98.0053 75.6108L98.5135 70.5803L95.483 70.072Z" fill="#7F3E3B"/>
<path d="M153.758 24.3725C152.688 30.1093 152.358 32.5607 149.071 35.1665C144.127 39.0865 137.314 36.5171 136.649 30.5761C136.05 25.2283 137.901 16.7453 143.844 15.1448C149.699 13.5681 154.828 18.6358 153.758 24.3725Z" fill="#7F3E3B"/>
<path d="M141.156 25.5815C140.829 28.5067 140.702 36.1066 147.128 36.3453C155.004 36.638 157.361 29.91 156.659 27.2193C160.754 23.8848 161.347 18.1515 156.742 13.764C152.138 9.37652 142 11.8293 139.168 16.1038C135.658 21.4025 141.156 25.5815 141.156 25.5815Z" fill="#263238"/>
<path d="M149.042 15.4691C148.662 12.3838 148.957 10.2546 151.843 10.2546C154.729 10.2546 158.678 11.3027 160.125 14.2595C161.573 17.2164 161.69 21.8376 157.653 21.3694C153.617 20.9019 149.498 19.1623 149.042 15.4691Z" fill="#0F969C"/>
<path d="M153.518 14.7278C152.83 11.0472 156.109 0.690622 164.108 0.0174039C167.814 -0.294986 169.529 3.69307 167.589 4.35015C171.089 4.30732 173.345 8.94755 170.071 9.64604C172.66 11.2992 172.015 14.7011 168.33 16.3684C165.613 17.5969 154.47 19.8208 153.518 14.7278Z" fill="#263238"/>
<path d="M162.063 18.6801C159.49 18.6801 156.798 18.3017 155.131 17.1855C154.119 16.5074 153.564 15.6088 153.481 14.5137C153.474 14.4168 153.546 14.3326 153.642 14.3256C153.745 14.3178 153.823 14.3908 153.831 14.487C153.905 15.4691 154.408 16.2785 155.326 16.8935C158.503 19.0205 165.844 18.3319 168.146 17.5807C170.125 16.9349 171.465 15.6832 171.731 14.2329C171.926 13.1687 171.508 12.1606 170.556 11.3933C170.48 11.3322 170.468 11.222 170.529 11.1462C170.589 11.0704 170.7 11.0592 170.776 11.1195C171.818 11.9591 172.292 13.1167 172.077 14.2961C171.788 15.8756 170.359 17.2283 168.256 17.9149C167.05 18.308 164.615 18.6801 162.063 18.6801Z" fill="#263238"/>
<path d="M139.365 24.8064C138.66 25.7829 138.457 26.9967 138.613 27.9759C138.847 29.448 140.282 29.5463 141.321 28.6021C142.256 27.7527 143.262 25.9626 142.497 24.7425C141.742 23.5393 140.172 23.6902 139.365 24.8064Z" fill="#7F3E3B"/>
<path d="M139.771 80.3921C139.771 80.3921 143.183 120.751 146.724 143.496C149.584 161.868 151.839 204.81 151.839 204.81H159.857C159.857 204.81 162.709 163.151 161.258 144.98C157.584 99.0007 165.776 95.2555 157.345 80.3921H139.771Z" fill="#0F969C"/>
<path opacity="0.4" d="M149.865 95.646C146.629 98.9524 144.165 102.905 142.29 107.075C143.224 116.144 144.333 126.211 145.512 135.028C149.163 125.811 152.287 111.631 149.865 95.646Z" fill="black"/>
<path d="M134.158 80.1375C134.158 80.1375 126.756 124.215 125.585 144.083C128.493 162.455 140.386 201.286 140.386 201.286L147.679 198.644C147.679 198.644 143.644 156.3 139.232 144.707C149.109 111.452 156.368 103.047 154.257 80.3923C149.219 80.3923 134.158 80.1375 134.158 80.1375Z" fill="#0F969C"/>
<path d="M139.407 203.227L149.263 200.551L148.705 196.622L138.152 199.475L139.407 203.227Z" fill="#263238"/>
<path d="M150.742 204.969H160.955L161.491 201.386L150.683 201.02L150.742 204.969Z" fill="#263238"/>
<path d="M157.703 78.9903L158.78 81.1278C158.864 81.2935 158.667 81.4627 158.391 81.4627H133.346C133.131 81.4627 132.952 81.3574 132.939 81.2219L132.723 79.0843C132.709 78.9362 132.895 78.8105 133.131 78.8105H157.314C157.492 78.8112 157.649 78.8836 157.703 78.9903Z" fill="#0F969C"/>
<path opacity="0.5" d="M157.703 78.9903L158.78 81.1278C158.864 81.2935 158.667 81.4627 158.391 81.4627H133.346C133.131 81.4627 132.952 81.3574 132.939 81.2219L132.723 79.0843C132.709 78.9362 132.895 78.8105 133.131 78.8105H157.314C157.492 78.8112 157.649 78.8836 157.703 78.9903Z" fill="black"/>
<path d="M154.455 81.6945H155.103C155.232 81.6945 155.331 81.6278 155.321 81.5463L155.017 78.7692C155.008 78.6878 154.896 78.6218 154.767 78.6218H154.119C153.99 78.6218 153.891 78.6885 153.901 78.7692L154.205 81.5463C154.213 81.6285 154.326 81.6945 154.455 81.6945Z" fill="#0F969C"/>
<path d="M145.761 61.2374C145.603 61.2374 145.463 61.1314 145.423 60.9784C143.132 52.5165 138.372 45.5569 136.101 44.4835C135.847 44.3635 135.637 44.3291 135.51 44.3859C135.331 44.466 135.125 44.3866 135.045 44.2097C134.966 44.0328 135.044 43.825 135.22 43.7457C135.548 43.5976 135.945 43.6327 136.401 43.8482C138.824 44.9939 143.626 51.8742 146.028 60.5333C147.75 60.5116 150.405 60.2968 151.046 60.2427C151.848 59.2894 157.735 51.9317 155.532 43.8826C155.481 43.6959 155.591 43.5028 155.778 43.4516C155.964 43.4003 156.158 43.5098 156.209 43.6973C158.661 52.6562 151.552 60.7334 151.48 60.8141C151.42 60.8808 151.338 60.9222 151.249 60.93C151.214 60.9335 147.713 61.2374 145.761 61.2374Z" fill="#0F969C"/>
<path d="M157.39 66.2C153.563 59.0269 151.998 58.5257 151.314 56.2197C151.314 56.2197 151.93 54.4787 153.496 52.716C153.026 52.5854 152.033 52.3867 151.409 52.2667C151.48 51.9529 151.552 51.6426 151.623 51.345C151.106 51.2011 150.033 51.3492 149.484 51.4411L149.459 50.7335C149.459 50.7335 147.519 50.3439 146.739 50.5608C146.817 50.8873 146.895 51.227 146.974 51.5717C146.291 51.7037 145.201 51.9213 144.687 52.0645C146.177 53.743 146.715 55.5352 146.831 55.9775C144.77 59.5191 136.751 82.3095 149.79 84.0231C162.838 85.7373 161.215 73.373 157.39 66.2Z" fill="#0F969C"/>
<path opacity="0.4" d="M157.39 66.2C153.563 59.0269 151.998 58.5257 151.314 56.2197C151.314 56.2197 151.93 54.4787 153.496 52.716C153.026 52.5854 152.033 52.3867 151.409 52.2667C151.48 51.9529 151.552 51.6426 151.623 51.345C151.106 51.2011 150.033 51.3492 149.484 51.4411L149.459 50.7335C149.459 50.7335 147.519 50.3439 146.739 50.5608C146.817 50.8873 146.895 51.227 146.974 51.5717C146.291 51.7037 145.201 51.9213 144.687 52.0645C146.177 53.743 146.715 55.5352 146.831 55.9775C144.77 59.5191 136.751 82.3095 149.79 84.0231C162.838 85.7373 161.215 73.373 157.39 66.2Z" fill="white"/>
<path d="M146.344 55.2987C146.247 55.4728 146.256 56.1327 146.241 56.3959C146.226 56.6592 146.928 56.8347 147.718 56.9077C148.508 56.9807 151.769 57.1127 151.667 56.7469C151.564 56.3812 151.828 55.8842 151.842 55.5767C151.857 55.2692 150.541 55.2552 149.444 55.2987C148.346 55.3422 146.563 54.9035 146.344 55.2987Z" fill="#0F969C"/>
<path d="M138.756 81.6945H139.404C139.533 81.6945 139.631 81.6278 139.622 81.5463L139.318 78.7692C139.309 78.6878 139.197 78.6218 139.067 78.6218H138.419C138.29 78.6218 138.192 78.6885 138.201 78.7692L138.505 81.5463C138.514 81.6285 138.627 81.6945 138.756 81.6945Z" fill="#0F969C"/>
</svg>
